<svg xmlns="http://www.w3.org/2000/svg" width="720" height="520" viewBox="0 0 720 520" role="img" aria-labelledby="title desc">
  <title id="title">Service booking dashboard preview</title>
  <desc id="desc">A stylized service booking dashboard with provider cards and scheduling details.</desc>
  <defs>
    <linearGradient id="panel" x1="100" x2="620" y1="50" y2="460" gradientUnits="userSpaceOnUse">
      <stop stop-color="#1f2937"/>
      <stop offset="1" stop-color="#0f172a"/>
    </linearGradient>
    <linearGradient id="accent" x1="130" x2="580" y1="92" y2="424" gradientUnits="userSpaceOnUse">
      <stop stop-color="#14b8a6"/>
      <stop offset="1" stop-color="#f59e0b"/>
    </linearGradient>
  </defs>
  <rect width="720" height="520" rx="36" fill="#0b1120"/>
  <rect x="70" y="58" width="580" height="404" rx="28" fill="url(#panel)" stroke="#334155" stroke-width="2"/>
  <rect x="104" y="94" width="512" height="58" rx="18" fill="#111827"/>
  <circle cx="135" cy="123" r="13" fill="#14b8a6"/>
  <rect x="163" y="113" width="150" height="14" rx="7" fill="#e2e8f0"/>
  <rect x="468" y="109" width="112" height="28" rx="14" fill="#14b8a6"/>
  <rect x="104" y="182" width="154" height="198" rx="18" fill="#111827" stroke="#1f2937"/>
  <rect x="284" y="182" width="154" height="198" rx="18" fill="#111827" stroke="#1f2937"/>
  <rect x="464" y="182" width="154" height="198" rx="18" fill="#111827" stroke="#1f2937"/>
  <circle cx="145" cy="225" r="22" fill="#f59e0b"/>
  <circle cx="325" cy="225" r="22" fill="#14b8a6"/>
  <circle cx="505" cy="225" r="22" fill="#38bdf8"/>
  <rect x="130" y="270" width="92" height="12" rx="6" fill="#e2e8f0"/>
  <rect x="310" y="270" width="92" height="12" rx="6" fill="#e2e8f0"/>
  <rect x="490" y="270" width="92" height="12" rx="6" fill="#e2e8f0"/>
  <rect x="130" y="302" width="66" height="10" rx="5" fill="#64748b"/>
  <rect x="310" y="302" width="66" height="10" rx="5" fill="#64748b"/>
  <rect x="490" y="302" width="66" height="10" rx="5" fill="#64748b"/>
  <rect x="130" y="336" width="82" height="24" rx="12" fill="url(#accent)"/>
  <rect x="310" y="336" width="82" height="24" rx="12" fill="url(#accent)"/>
  <rect x="490" y="336" width="82" height="24" rx="12" fill="url(#accent)"/>
  <path d="M77 436c64-54 119-76 166-66 71 15 106 75 177 62 55-10 90-58 170-34 35 10 59 29 74 43" fill="none" stroke="#14b8a6" stroke-width="4" opacity=".55"/>
</svg>
